<svg width="109" height="109" viewBox="0 0 109 109" fill="none" xmlns="http://www.w3.org/2000/svg">
<rect width="109" height="109" fill="#E19057"/>
<path d="M28.7081 34.9756V41.2195H20.9032V34.9756H28.7081ZM28.7081 45.9024V74H20.9032V45.9024H28.7081ZM52.1364 72.439V74H39.6486V72.439H36.5267V70.878H34.9657V67.7561H33.4047V50.5854H34.9657V47.4634H36.5267V45.9024H39.6486V44.3415H52.1364V45.9024H55.2584V47.4634H56.8194V50.5854H58.3803V67.7561H56.8194V70.878H55.2584V72.439H52.1364ZM42.7706 66.1951V67.7561H49.0145V66.1951H50.5755V52.1463H49.0145V50.5854H42.7706V52.1463H41.2096V66.1951H42.7706ZM70.8956 63.0732V64.6341H72.4566V66.1951H78.7005V64.6341H80.2614V58.3902H78.7005V56.8293H70.8956V50.5854H78.7005V49.0244H80.2614V44.3415H78.7005V42.7805H72.4566V44.3415H70.8956V45.9024H63.0907V41.2195H64.6517V38.0976H66.2127V36.5366H69.3346V34.9756H81.8224V36.5366H84.9444V38.0976H86.5053V41.2195H88.0663V50.5854H86.5053V52.1463H84.9444V55.2683H86.5053V56.8293H88.0663V67.7561H86.5053V70.878H84.9444V72.439H81.8224V74H69.3346V72.439H66.2127V70.878H64.6517V67.7561H63.0907V63.0732H70.8956Z" fill="white"/>
</svg>
